<svg xmlns="http://www.w3.org/2000/svg" viewBox="0 0 1200 900">
<rect width="1200" height="900" fill="#102B22"/><g opacity=".16" stroke="#F5F1E8" fill="none"><path d="M80 120H1120M80 260H1120M80 400H1120M80 540H1120M80 680H1120M80 820H1120"/><path d="M150 70V830M350 70V830M550 70V830M750 70V830M950 70V830"/></g>
<g fill="none" stroke="#C9A227" stroke-width="3"><path d="M175 630 C320 540 420 680 560 490 S820 310 1010 410"/><path d="M170 700 C340 560 500 780 690 570 S930 410 1050 520" opacity=".55"/></g>
<g fill="#183D31" stroke="#C9A227" stroke-width="2"><rect x="120" y="160" width="230" height="110" rx="4"/><rect x="430" y="120" width="260" height="130" rx="4"/><rect x="780" y="185" width="250" height="105" rx="4"/><rect x="300" y="420" width="260" height="120" rx="4"/><rect x="670" y="400" width="270" height="140" rx="4"/></g>
<g fill="#F5F1E8" font-family="Arial, sans-serif" font-size="24"><text x="150" y="210">FOUNDATION</text><text x="465" y="180">PROCESS</text><text x="815" y="230">OVERSIGHT</text><text x="335" y="470">WORKFLOW</text><text x="705" y="455">CONTROL</text></g>
<g fill="#C9A227"><circle cx="350" cy="215" r="8"/><circle cx="430" cy="185" r="8"/><circle cx="690" cy="185" r="8"/><circle cx="780" cy="235" r="8"/><circle cx="560" cy="480" r="8"/><circle cx="670" cy="470" r="8"/></g>
</svg>