<svg xmlns="http://www.w3.org/2000/svg" viewBox="0 0 900 600"><rect width="900" height="600" fill="#102B22"/><g fill="none" stroke="#C9A227" stroke-width="4"><path d="M150 300H330M450 300H620M720 300H820"/><path d="M330 300l-18-12m18 12l-18 12M620 300l-18-12m18 12l-18 12M820 300l-18-12m18 12l-18 12"/></g><g fill="#17382D" stroke="#C9A227" stroke-width="3"><rect x="60" y="235" width="120" height="130"/><rect x="330" y="235" width="120" height="130"/><rect x="620" y="235" width="120" height="130"/><rect x="780" y="235" width="80" height="130"/></g><g fill="#F5F1E8" font-family="Arial" font-size="18"><text x="83" y="290">INPUT</text><text x="342" y="290">PROCESS</text><text x="642" y="290">CHECK</text><text x="790" y="290">DONE</text></g><g fill="#C9A227"><circle cx="120" cy="185" r="12"/><circle cx="390" cy="185" r="12"/><circle cx="680" cy="185" r="12"/><circle cx="820" cy="185" r="12"/></g></svg>